<svg width="52" height="51" viewBox="0 0 52 51" fill="none" xmlns="http://www.w3.org/2000/svg">
<g clip-path="url(#clip0_2271_805)">
<mask id="mask0_2271_805" style="mask-type:luminance" maskUnits="userSpaceOnUse" x="1" y="0" width="51" height="51">
<path d="M51.1785 0.0185547H1.17847V50.0186H51.1785V0.0185547Z" fill="white"/>
</mask>
<g mask="url(#mask0_2271_805)">
<path d="M42.2885 17.1716C41.7698 16.9931 41.2323 16.8241 40.6789 16.6644C40.7699 16.2931 40.8533 15.9268 40.9276 15.5666C42.146 9.65233 41.3493 4.88774 38.6292 3.31904C36.0208 1.81487 31.7549 3.38321 27.4466 7.13257C27.0323 7.49311 26.6169 7.87482 26.2016 8.27488C25.9249 8.0102 25.6486 7.75441 25.3732 7.50975C20.8579 3.50068 16.3322 1.81121 13.6145 3.38445C11.0086 4.893 10.2369 9.37215 11.3337 14.9771C11.4396 15.5186 11.5634 16.0714 11.7034 16.6336C11.0628 16.8154 10.4445 17.0091 9.85278 17.2154C4.5592 19.061 1.17847 21.9534 1.17847 24.9537C1.17847 28.0524 4.80768 31.1604 10.3214 33.045C10.7565 33.1937 11.208 33.3343 11.6733 33.4678C11.5222 34.0758 11.3909 34.6716 11.2806 35.2526C10.2349 40.7604 11.0515 45.1337 13.6505 46.6327C16.3349 48.1807 20.8403 46.5896 25.2273 42.7547C25.574 42.4516 25.922 42.1301 26.2706 41.7931C26.7225 42.2283 27.1736 42.6401 27.6223 43.0264C31.8718 46.6831 36.0688 48.1597 38.6652 46.6564C41.347 45.104 42.2186 40.406 41.087 34.6901C41.0006 34.2536 40.9002 33.8076 40.7872 33.3537C41.1036 33.2601 41.4142 33.1636 41.717 33.0631C47.449 31.164 51.1785 28.0938 51.1785 24.9537C51.1785 21.9426 47.6888 19.0307 42.2885 17.1716ZM41.0453 31.0357C40.7719 31.1261 40.4913 31.2137 40.2055 31.2984C39.5728 29.2951 38.7186 27.165 37.6735 24.9641C38.6709 22.8157 39.4919 20.7127 40.1069 18.7224C40.6185 18.8704 41.1149 19.0266 41.5932 19.1913C46.2202 20.7841 49.0425 23.1391 49.0425 24.9537C49.0425 26.8866 45.9945 29.3957 41.0453 31.0357ZM38.9918 35.1048C39.492 37.6324 39.5635 39.9176 39.232 41.704C38.9343 43.3091 38.3355 44.3793 37.5949 44.808C36.0192 45.72 32.6495 44.5344 29.0155 41.4071C28.5988 41.0487 28.1792 40.666 27.7582 40.2608C29.167 38.72 30.5752 36.9287 31.9493 34.9393C34.3665 34.7247 36.6502 34.3741 38.721 33.8954C38.823 34.3068 38.9136 34.7104 38.9918 35.1048ZM18.2246 44.6503C16.685 45.194 15.4589 45.2096 14.7178 44.7823C13.1406 43.8726 12.4849 40.3611 13.3793 35.651C13.4817 35.1116 13.6037 34.5574 13.7442 33.9911C15.7925 34.444 18.0593 34.7698 20.4822 34.9663C21.8658 36.913 23.3145 38.7023 24.7745 40.2691C24.4555 40.577 24.1378 40.8701 23.8218 41.1464C21.8819 42.8421 19.9379 44.0453 18.2246 44.6503ZM11.0122 31.0238C8.57414 30.1906 6.5607 29.1076 5.1806 27.9257C3.94047 26.8637 3.31437 25.8093 3.31437 24.9537C3.31437 23.133 6.02875 20.8108 10.5559 19.2324C11.1052 19.0408 11.6802 18.8604 12.277 18.6908C12.9026 20.7261 13.7234 22.854 14.7139 25.0057C13.7106 27.1894 12.8781 29.3511 12.2463 31.4103C11.8209 31.288 11.4088 31.1593 11.0122 31.0238ZM13.4299 14.567C12.4902 9.76472 13.1143 6.1421 14.6846 5.23305C16.3573 4.26465 20.0563 5.6454 23.9548 9.10702C24.204 9.32828 24.4542 9.55985 24.705 9.79944C23.2523 11.3593 21.8169 13.1352 20.4456 15.0704C18.0942 15.2884 15.8432 15.6386 13.7736 16.1074C13.6435 15.584 13.5282 15.0697 13.4299 14.567ZM34.9976 19.8926C34.5029 19.038 33.9949 18.2037 33.4772 17.3921C35.0725 17.5937 36.6009 17.8614 38.0363 18.189C37.6053 19.5701 37.0682 21.0141 36.436 22.4944C35.9825 21.6334 35.5028 20.7653 34.9976 19.8926ZM26.2023 11.326C27.1876 12.3933 28.1742 13.585 29.1446 14.878C28.1668 14.8318 27.1768 14.8078 26.1785 14.8078C25.1898 14.8078 24.2069 14.8313 23.235 14.8767C24.2065 13.5957 25.2018 12.4056 26.2023 11.326ZM17.3508 19.9074C16.8565 20.7643 16.3858 21.6278 15.9393 22.4928C15.3173 21.0177 14.7852 19.5671 14.3505 18.1664C15.777 17.8473 17.2983 17.5861 18.8835 17.3883C18.3583 18.2074 17.8463 19.0481 17.3508 19.9074ZM18.9292 32.6714C17.2913 32.4887 15.7472 32.2411 14.321 31.9307C14.7626 30.505 15.3065 29.0234 15.9416 27.5166C16.3892 28.381 16.8619 29.2448 17.3592 30.1037C17.8656 30.9786 18.3905 31.8357 18.9292 32.6714ZM26.2615 38.732C25.249 37.6397 24.2393 36.4316 23.253 35.1318C24.2105 35.1694 25.1865 35.1887 26.1785 35.1887C27.1976 35.1887 28.205 35.1657 29.1968 35.1216C28.223 36.4446 27.2399 37.6547 26.2615 38.732ZM36.4563 27.4397C37.1246 28.963 37.688 30.4368 38.1353 31.8381C36.6856 32.1688 35.1205 32.4353 33.4712 32.6331C33.9903 31.8107 34.5026 30.962 35.0062 30.089C35.5155 29.2057 35.999 28.3211 36.4563 27.4397ZM33.1559 29.0218C32.3743 30.3771 31.5719 31.6707 30.7573 32.892C29.2736 32.998 27.7408 33.0527 26.1785 33.0527C24.6225 33.0527 23.109 33.0043 21.6515 32.9097C20.804 31.6726 19.9842 30.375 19.2076 29.0336C18.433 27.6957 17.7203 26.3466 17.0743 25.005C17.7202 23.6603 18.4312 22.3097 19.2013 20.9741C19.9736 19.6351 20.7859 18.3443 21.6255 17.1148C23.1125 17.0024 24.6373 16.9438 26.1783 16.9438C27.7263 16.9438 29.2532 17.0028 30.7398 17.1163C31.5666 18.3367 32.3738 19.6237 33.1489 20.9628C33.9329 22.3171 34.653 23.6588 35.3043 24.9746C34.655 26.3131 33.9365 27.6683 33.1559 29.0218ZM37.5622 5.16951C39.2365 6.13507 39.8876 10.0291 38.8358 15.1354C38.7686 15.4613 38.693 15.7931 38.6109 16.1296C36.5366 15.6508 34.284 15.2947 31.9256 15.0734C30.5518 13.117 29.128 11.3383 27.6989 9.79845C28.0832 9.42884 28.4668 9.07641 28.8489 8.74381C32.5402 5.53138 35.9903 4.26305 37.5622 5.16951ZM26.1785 20.4888C28.6443 20.4888 30.6433 22.4878 30.6433 24.9537C30.6433 27.4196 28.6443 29.4186 26.1785 29.4186C23.7126 29.4186 21.7136 27.4196 21.7136 24.9537C21.7136 22.4878 23.7126 20.4888 26.1785 20.4888Z" fill="#00D8FF"/>
</g>
</g>
<defs>
<clipPath id="clip0_2271_805">
<rect width="51.4286" height="50" fill="white" transform="translate(0.285645 0.0185547)"/>
</clipPath>
</defs>
</svg>
