<svg width="26" height="32" viewBox="0 0 26 32" fill="none" xmlns="http://www.w3.org/2000/svg">
<path fill-rule="evenodd" clip-rule="evenodd" d="M18.7414 11.5094L12.7227 0.179688L6.68022 11.5094L12.7227 22.8336L18.7414 11.5094ZM12.7195 21.2594L7.48002 11.5082L12.7194 1.68419L12.7227 11.8418L12.7195 21.2594ZM11.9082 22.8692L6.29981 12.1936L3.0005 18.4801L5.25893 22.8692H11.9082ZM22.5413 18.48L19.1833 12.2088L13.5255 22.8692H20.2401L22.5413 18.48ZM5.68909 22.164L3.79515 18.4833L6.2935 13.7621L10.6351 22.164H5.68909ZM4.62619 31.8203V30.6255H2.37373L4.62619 27.0999L7.85799 31.8203H9.32699L4.62619 24.8866L0.0625 31.8203H4.62619ZM9.32699 26.1597V24.9649H13.9005C14.6956 24.9649 15.3401 25.6095 15.3401 26.4046V27.0215C15.3401 27.4759 14.9718 27.8442 14.5175 27.8442L17.3771 31.8203H15.7906L12.7155 27.8442H10.6981V31.8203L9.32699 29.7637V26.7082H13.5773C13.7287 26.7082 13.8515 26.5854 13.8515 26.4339C13.8515 26.2825 13.7287 26.1597 13.5773 26.1597H9.32699ZM17.9451 24.9649V31.8203H19.3358V27.8442H21.3924L24.3304 31.8203H25.9169L22.7634 27.3153L24.4087 24.9649H22.7243L21.3924 26.7082H19.3358V24.9649H17.9451Z" fill="#F2F4F5"/>
</svg>
