<svg width="50" height="51" viewBox="0 0 50 51" fill="none" xmlns="http://www.w3.org/2000/svg">
<mask id="mask0_2271_566" style="mask-type:luminance" maskUnits="userSpaceOnUse" x="0" y="0" width="50" height="51">
<path d="M50 0.0185547H0V50.0186H50V0.0185547Z" fill="white"/>
</mask>
<g mask="url(#mask0_2271_566)">
<path d="M23.3641 0.0575101C23.2568 0.0672747 22.915 0.101451 22.6074 0.125863C15.5134 0.765448 8.86852 4.59321 4.65995 10.4764C2.31643 13.7476 0.81755 17.4582 0.251199 21.3885C0.051023 22.7603 0.0266113 23.1656 0.0266113 25.0257C0.0266113 26.8859 0.051023 27.2912 0.251199 28.6632C1.60849 38.042 8.28265 45.9222 17.3345 48.8418C18.9554 49.3642 20.6642 49.7206 22.6074 49.9355C23.3641 50.0185 26.6354 50.0185 27.3921 49.9355C30.7462 49.5645 33.5878 48.7345 36.3903 47.3039C36.82 47.0842 36.903 47.0256 36.8442 46.9768C36.8052 46.9475 34.9744 44.4916 32.7772 41.5232L28.7835 36.1282L23.7791 28.7218C21.0255 24.6499 18.7601 21.32 18.7405 21.32C18.7211 21.3152 18.7015 24.6059 18.6918 28.624C18.6771 35.6595 18.6722 35.9426 18.5844 36.1086C18.4574 36.3479 18.3598 36.4456 18.1547 36.553C17.9985 36.631 17.8618 36.6458 17.1245 36.6458H16.28L16.0552 36.5042C15.9088 36.4113 15.8014 36.2893 15.7282 36.1478L15.6257 35.928L15.6354 26.1389L15.6501 16.345L15.8014 16.1546C15.8795 16.052 16.0455 15.9202 16.1627 15.8568C16.363 15.759 16.441 15.7493 17.2857 15.7493C18.2817 15.7493 18.4477 15.7885 18.7064 16.0716C18.7797 16.1497 21.4894 20.2313 24.7312 25.1479C27.9731 30.0643 32.4062 36.7776 34.5838 40.0732L38.5385 46.0638L38.7387 45.9319C40.511 44.7798 42.3858 43.1392 43.87 41.4305C47.0288 37.8029 49.0648 33.3795 49.7482 28.6632C49.9485 27.2912 49.973 26.8859 49.973 25.0257C49.973 23.1656 49.9485 22.7603 49.7482 21.3885C48.391 12.0095 41.7168 4.12938 32.665 1.20974C31.0685 0.692214 29.3694 0.335803 27.4654 0.12098C26.9967 0.0721571 23.7694 0.0184514 23.3641 0.0575101ZM33.5878 15.1635C33.8221 15.2806 34.0125 15.5052 34.081 15.7396C34.12 15.8665 34.1297 18.581 34.12 24.6986L34.1052 33.477L32.5577 31.1043L31.005 28.7315V22.3503C31.005 18.2248 31.0245 15.9056 31.0538 15.7933C31.132 15.5199 31.3028 15.305 31.5372 15.178C31.7374 15.0756 31.8107 15.0658 32.5771 15.0658C33.2997 15.0658 33.4267 15.0756 33.5878 15.1635Z" fill="#676767"/>
<path d="M38.2949 46.1713C38.1241 46.2787 38.0703 46.3519 38.2216 46.2689C38.3291 46.2054 38.5048 46.0736 38.4755 46.0687C38.4609 46.0687 38.3779 46.1176 38.2949 46.1713ZM37.9581 46.391C37.8701 46.4593 37.8701 46.4642 37.9775 46.4104C38.0361 46.3812 38.0849 46.347 38.0849 46.3373C38.0849 46.2982 38.0605 46.308 37.9581 46.391ZM37.7139 46.5374C37.6261 46.6057 37.6261 46.6107 37.7333 46.557C37.7921 46.5277 37.8408 46.4934 37.8408 46.4837C37.8408 46.4447 37.8163 46.4544 37.7139 46.5374ZM37.4698 46.6839C37.3819 46.7523 37.3819 46.7572 37.4893 46.7034C37.5479 46.6742 37.5968 46.64 37.5968 46.6302C37.5968 46.5912 37.5723 46.6009 37.4698 46.6839ZM37.0988 46.8792C36.9132 46.9769 36.9229 47.0159 37.1085 46.9232C37.1915 46.8792 37.2549 46.8353 37.2549 46.8254C37.2549 46.7913 37.2501 46.7962 37.0988 46.8792Z" fill="white"/>
</g>
</svg>
