<svg width="50" height="51" viewBox="0 0 50 51" fill="none" xmlns="http://www.w3.org/2000/svg">
<g clip-path="url(#clip0_2270_258)">
<path fill-rule="evenodd" clip-rule="evenodd" d="M25.0443 50.0735C24.3726 50.0735 23.7458 49.8944 23.1637 49.5809L17.2086 46.0437C16.3132 45.5512 16.7609 45.3721 17.0295 45.2825C18.2385 44.8796 18.4623 44.79 19.716 44.0736C19.8504 43.9841 20.0295 44.0288 20.1638 44.1184L24.7308 46.8497C24.9099 46.9392 25.1338 46.9392 25.2681 46.8497L43.1333 36.5067C43.3124 36.4171 43.402 36.238 43.402 36.0141V15.3729C43.402 15.149 43.3124 14.9699 43.1333 14.8804L25.2681 4.58212C25.089 4.49257 24.8652 4.49257 24.7308 4.58212L6.86564 14.8804C6.68654 14.9699 6.59699 15.1938 6.59699 15.3729V36.0141C6.59699 36.1932 6.68654 36.4171 6.86564 36.5067L11.7461 39.3275C14.3878 40.6707 16.0445 39.1036 16.0445 37.5365V17.1639C16.0445 16.8952 16.2684 16.6266 16.5818 16.6266H18.8653C19.134 16.6266 19.4026 16.8505 19.4026 17.1639V37.5365C19.4026 41.0737 17.4773 43.1333 14.1192 43.1333C13.0894 43.1333 12.2834 43.1333 9.99989 42.014L5.29852 39.3275C4.13437 38.6558 3.41797 37.4022 3.41797 36.0589V15.4177C3.41797 14.0744 4.13437 12.8207 5.29852 12.1491L23.1637 1.80607C24.2831 1.17923 25.8054 1.17923 26.9248 1.80607L44.79 12.1491C45.9542 12.8207 46.6706 14.0744 46.6706 15.4177V36.0589C46.6706 37.4022 45.9542 38.6558 44.79 39.3275L26.9248 49.6705C26.3427 49.9391 25.6711 50.0735 25.0443 50.0735ZM30.5516 35.8798C22.716 35.8798 21.1041 32.2978 21.1041 29.2531C21.1041 28.9845 21.3279 28.7158 21.6414 28.7158H23.9697C24.2383 28.7158 24.4622 28.8949 24.4622 29.1636C24.8204 31.5366 25.8502 32.7008 30.5964 32.7008C34.3575 32.7008 35.9693 31.8501 35.9693 29.8352C35.9693 28.671 35.5216 27.8203 29.6561 27.2382C24.7756 26.7457 21.7309 25.6711 21.7309 21.7757C21.7309 18.1489 24.7756 15.9997 29.88 15.9997C35.6111 15.9997 38.432 17.9698 38.7902 22.2682C38.7902 22.4025 38.7454 22.5369 38.6558 22.6712C38.5663 22.7607 38.432 22.8503 38.2976 22.8503H35.9693C35.7455 22.8503 35.5216 22.6712 35.4768 22.4473C34.9395 19.9847 33.5515 19.1788 29.88 19.1788C25.7607 19.1788 25.2681 20.6116 25.2681 21.6861C25.2681 22.9846 25.8502 23.3876 31.4023 24.104C36.9096 24.8204 39.5066 25.8502 39.5066 29.7009C39.4618 33.6411 36.238 35.8798 30.5516 35.8798Z" fill="#539E43"/>
</g>
<defs>
<clipPath id="clip0_2270_258">
<rect width="50" height="50" fill="white" transform="translate(0 0.75)"/>
</clipPath>
</defs>
</svg>
